<?xml version="1.0" standalone="no"?>
<!DOCTYPE svg PUBLIC "-//W3C//DTD SVG 20010904//EN"
 "http://www.w3.org/TR/2001/REC-SVG-20010904/DTD/svg10.dtd">
<svg version="1.0" xmlns="http://www.w3.org/2000/svg"
 width="852.000000pt" height="849.000000pt" viewBox="0 0 852.000000 849.000000"
 preserveAspectRatio="xMidYMid meet">

<g transform="translate(0.000000,849.000000) scale(0.100000,-0.100000)"
fill="#ffffff" stroke="none">
<path d="M4503 8360 l-22 -9 29 -30 c17 -16 30 -39 30 -50 0 -25 -2 -25 -41
-5 -26 13 -42 14 -99 5 -38 -6 -95 -11 -126 -11 l-58 0 32 -31 c18 -17 32 -35
32 -40 0 -5 -34 -6 -75 -2 -41 3 -75 3 -75 0 0 -3 11 -23 25 -43 38 -57 40
-75 9 -140 -15 -33 -29 -83 -32 -113 -4 -48 -3 -53 13 -48 66 26 67 25 24 -60
-36 -71 -64 -167 -53 -185 2 -3 24 5 49 19 25 13 45 23 45 20 0 -2 -9 -30 -20
-62 -11 -32 -25 -106 -32 -166 -13 -120 -3 -239 30 -345 l19 -59 7 50 c12 92
37 167 68 213 33 48 47 43 29 -10 -14 -39 -14 -165 -1 -173 6 -3 10 1 10 10 0
21 41 100 78 151 31 43 99 101 107 92 3 -3 -20 -53 -51 -111 -30 -59 -51 -107
-45 -107 10 0 119 84 226 175 118 100 237 152 417 182 l103 17 -80 13 c-137
21 -369 26 -470 10 -49 -8 -92 -13 -93 -11 -7 5 72 41 138 62 77 25 225 52
286 52 24 0 44 3 44 6 0 3 -22 30 -48 59 -46 50 -72 106 -72 156 0 20 7 16 58
-34 68 -68 158 -137 179 -137 25 0 70 28 91 57 l21 28 9 -25 c13 -33 99 -110
123 -110 4 0 10 18 14 40 4 22 12 40 19 40 22 0 55 -30 87 -80 18 -28 37 -50
44 -50 6 0 31 20 55 45 41 42 45 44 62 28 10 -9 28 -32 40 -51 19 -32 23 -33
62 -26 22 3 70 17 106 31 36 14 83 32 105 40 22 8 90 19 150 24 61 6 126 14
145 19 19 5 38 6 41 2 14 -14 -11 -117 -40 -164 -17 -27 -26 -50 -20 -53 14
-9 73 12 181 66 54 27 108 49 120 49 35 0 121 -44 167 -85 43 -39 131 -156
131 -174 0 -7 -16 -3 -39 8 -43 23 -182 63 -189 56 -3 -2 24 -37 60 -77 102
-114 188 -262 188 -324 0 -18 -27 3 -120 90 -104 97 -231 188 -246 174 -2 -3
16 -47 40 -99 58 -126 92 -232 87 -274 0 -5 -17 13 -36 42 -33 49 -82 93 -104
93 -6 0 -5 -17 4 -47 32 -111 53 -290 57 -481 1 -62 5 -115 10 -118 5 -3 18
16 31 43 l22 48 6 -160 c4 -88 12 -176 18 -195 14 -44 50 -104 58 -96 3 3 0
82 -7 176 -13 179 -9 268 17 363 18 64 30 80 37 45 28 -156 66 -306 156 -623
71 -253 110 -456 110 -582 0 -74 -18 -173 -31 -173 -4 0 -10 30 -14 68 -18
204 -51 335 -115 467 -37 77 -98 170 -106 162 -2 -2 4 -46 15 -98 11 -52 38
-184 61 -293 22 -109 39 -203 37 -209 -4 -12 -58 72 -85 133 -98 218 -210 566
-256 794 -9 43 -23 135 -31 205 -37 299 -91 571 -133 661 -35 76 -125 203
-190 267 -53 51 -72 63 -72 43 0 -5 21 -67 47 -137 63 -175 67 -241 23 -390
-17 -59 -34 -129 -37 -155 -6 -47 -5 -48 21 -48 39 0 104 -37 148 -84 39 -41
95 -142 86 -152 -3 -3 -32 7 -63 21 -32 14 -60 23 -63 20 -3 -3 20 -57 52
-120 77 -158 103 -241 116 -371 17 -181 12 -323 -15 -484 -27 -158 -32 -280
-13 -359 13 -57 23 -63 40 -26 6 14 14 25 18 25 4 0 26 -39 50 -87 25 -50 46
-81 48 -71 2 9 -4 53 -12 98 -21 106 -20 108 8 81 31 -29 83 -143 96 -210 15
-78 12 -310 -5 -426 -8 -55 -28 -149 -44 -210 l-30 -110 22 -32 c12 -18 26
-33 31 -33 24 0 127 148 178 257 23 49 44 81 46 71 5 -25 -43 -160 -110 -303
-33 -71 -65 -148 -70 -170 -6 -22 -21 -53 -33 -70 -46 -64 -33 -57 44 23 265
276 385 606 457 1254 17 149 17 166 1 315 -18 163 -42 306 -103 617 -19 99
-33 186 -32 195 2 9 25 -33 50 -94 176 -416 207 -647 153 -1133 -14 -124 -25
-248 -23 -276 l3 -51 32 66 c18 36 41 96 50 132 10 37 21 67 25 67 28 0 -34
-256 -122 -505 -75 -211 -91 -265 -80 -265 27 0 136 187 193 332 116 294 155
656 111 1038 -22 199 -52 308 -121 448 -72 146 -70 140 -49 123 27 -23 70 -89
117 -182 50 -97 62 -87 29 24 -25 83 -116 262 -195 384 -30 46 -55 87 -55 90
0 4 21 -13 46 -37 60 -59 153 -199 219 -330 52 -104 115 -273 115 -310 0 -10
5 -22 11 -26 20 -12 5 229 -20 320 -47 175 -168 381 -314 534 -80 83 17 33
136 -71 37 -33 70 -57 73 -54 11 10 -41 123 -108 234 -39 65 -72 121 -75 126
-11 18 20 4 65 -32 58 -46 129 -149 166 -241 15 -36 46 -143 70 -238 41 -160
64 -222 85 -222 20 0 21 236 2 425 -21 197 -34 249 -100 403 -82 190 -110 232
-223 342 -59 58 -108 109 -108 114 0 14 99 -3 146 -26 48 -22 115 -92 144
-149 21 -41 51 -128 86 -248 39 -135 76 -181 67 -84 -29 314 -88 475 -214 585
-34 29 -82 71 -107 94 l-45 41 21 19 c12 10 22 23 22 29 0 6 -47 26 -105 45
-58 19 -105 37 -105 41 0 4 20 22 45 40 25 18 44 37 42 43 -2 7 -75 13 -202
16 l-199 5 40 32 c21 17 37 33 34 35 -11 9 -338 -12 -407 -26 -143 -30 -247
-82 -346 -175 -26 -24 -49 -42 -52 -39 -3 2 11 37 30 77 19 40 35 75 35 77 0
11 -35 2 -80 -21 -65 -33 -114 -77 -135 -122 -16 -34 -19 -36 -29 -19 -34 59
-72 111 -80 111 -5 0 -16 -20 -24 -45 l-15 -44 -16 24 c-38 58 -185 199 -196
188 -3 -3 2 -24 10 -48 17 -49 20 -100 5 -100 -13 0 -112 103 -143 147 -12 18
-26 33 -31 33 -13 0 2 -77 24 -127 10 -24 16 -43 13 -43 -21 0 -82 53 -130
112 l-55 70 -64 -63 c-35 -35 -65 -61 -67 -58 -3 2 -12 29 -22 59 -50 157
-177 316 -300 375 -64 31 -161 43 -202 25z"/>
<path d="M3925 8023 c-723 -62 -1411 -320 -2000 -751 -49 -36 -92 -67 -94 -68
-3 -3 45 -62 147 -181 l54 -62 64 47 c132 97 154 112 295 197 451 273 963 445
1474 496 66 7 121 13 122 14 1 0 9 59 18 130 8 72 18 142 21 158 6 30 7 29
-101 20z"/>
<path d="M5685 7520 c-205 -37 -324 -90 -426 -190 -51 -51 -75 -86 -111 -160
-25 -52 -72 -148 -103 -213 -31 -65 -55 -121 -52 -123 8 -8 100 71 165 141 35
38 89 108 119 155 68 103 114 163 120 156 3 -3 -3 -25 -12 -50 -22 -58 -16
-80 20 -64 14 6 28 8 32 5 3 -4 -12 -62 -35 -129 -67 -202 -85 -383 -50 -500
16 -53 28 -47 28 15 0 61 22 171 47 236 17 45 33 76 146 276 53 95 114 251
103 262 -3 3 -30 -5 -61 -17 -31 -12 -59 -20 -62 -16 -11 11 83 100 145 136
31 19 77 49 101 67 43 33 44 33 15 32 -16 0 -74 -9 -129 -19z"/>
<path d="M1278 7488 c-9 -23 3 -36 47 -58 62 -30 108 -85 278 -331 315 -457
371 -515 445 -463 48 33 41 45 -185 336 -311 400 -368 463 -447 503 -54 27
-131 34 -138 13z"/>
<path d="M1281 7381 c-22 -14 -50 -249 -51 -411 0 -251 38 -411 139 -585 40
-69 113 -150 153 -171 74 -38 146 3 133 76 -4 20 -35 73 -71 122 -141 194
-197 362 -229 688 -8 80 -15 172 -15 206 0 74 -20 100 -59 75z"/>
<path d="M4883 7360 c-130 -59 -419 -255 -514 -350 -171 -170 -282 -418 -296
-664 -6 -99 11 -271 27 -281 4 -2 11 23 14 58 17 148 57 298 107 398 25 51 54
87 63 78 2 -2 -9 -44 -26 -93 -31 -94 -46 -215 -31 -255 8 -20 16 -5 57 110
65 180 161 429 197 508 56 122 160 240 377 426 50 43 92 80 92 82 0 8 -29 1
-67 -17z"/>
<path d="M4935 7275 c-186 -99 -395 -361 -422 -528 l-6 -41 30 22 c61 43 125
119 158 187 l35 70 0 -42 c0 -44 -39 -181 -71 -247 -10 -22 -19 -41 -19 -42 0
-13 66 25 103 59 61 55 95 128 151 320 25 87 58 181 72 208 14 28 24 53 21 55
-2 2 -25 -7 -52 -21z"/>
<path d="M6019 7225 c-1 -78 -1 -79 -15 -47 -8 17 -18 32 -23 32 -4 0 -11 -30
-14 -68 -6 -77 -35 -167 -84 -263 -34 -66 -57 -155 -35 -134 6 6 40 50 76 100
36 49 66 85 66 80 0 -6 -16 -54 -35 -108 -37 -104 -47 -174 -21 -147 8 8 42
65 75 125 78 143 108 249 92 336 -11 63 -30 109 -61 149 l-20 25 -1 -80z"/>
<path d="M3323 7102 c-56 -23 -116 -73 -154 -129 -28 -41 -81 -153 -166 -358
-34 -81 -83 -177 -163 -320 -193 -346 -193 -345 -180 -360 20 -24 35 -18 72
28 20 23 52 60 72 82 86 95 254 394 355 635 98 232 123 270 201 305 55 25 104
10 168 -53 88 -86 154 -235 187 -422 20 -110 22 -353 4 -458 -13 -78 -64 -287
-80 -329 -6 -15 -17 -57 -24 -92 -17 -76 -3 -125 40 -141 58 -22 126 37 185
162 47 100 74 197 95 339 19 131 19 232 1 369 -37 275 -127 490 -261 626 -108
109 -253 157 -352 116z"/>
<path d="M3335 6702 c-5 -4 -17 -21 -26 -37 -8 -17 -26 -49 -38 -72 -28 -49
-23 -71 18 -79 l30 -6 -35 -50 c-39 -57 -40 -65 -18 -96 11 -15 25 -22 50 -22
19 0 34 -2 34 -5 0 -3 -22 -50 -50 -105 -59 -117 -70 -168 -46 -205 30 -46 58
-30 82 45 12 36 42 111 68 167 75 167 77 213 11 213 -19 0 -35 2 -35 5 0 3 14
30 31 60 26 46 29 58 18 71 -7 8 -26 15 -43 14 -17 -1 -34 -2 -38 -1 -4 1 0
20 8 43 19 54 9 83 -21 60z"/>
<path d="M4683 6620 c-53 -27 -98 -78 -129 -144 -30 -65 -31 -81 -4 -64 18 12
23 9 46 -20 38 -48 97 -75 154 -70 55 6 124 38 169 80 18 17 35 28 38 25 3 -3
0 -29 -7 -57 -7 -28 -10 -53 -7 -56 3 -3 15 9 28 27 15 22 24 51 27 88 3 49 0
62 -26 102 -57 88 -203 133 -289 89z m106 -97 c13 -25 -5 -53 -34 -53 -15 0
-26 7 -30 20 -13 41 43 70 64 33z"/>
<path d="M2065 6554 c-97 -24 -98 -58 -2 -68 190 -22 395 -76 573 -152 57 -24
110 -44 117 -44 16 0 57 37 57 51 0 6 -8 24 -17 41 -23 39 -165 109 -305 150
-128 37 -323 47 -423 22z"/>
<path d="M5553 6510 c-89 -31 -151 -88 -190 -171 -26 -54 -38 -119 -23 -119 5
0 10 5 10 12 0 33 43 96 79 116 21 12 41 22 45 22 3 0 17 -21 30 -47 29 -57
63 -94 118 -131 37 -24 51 -27 122 -27 57 0 90 5 112 17 35 19 47 14 77 -31
14 -22 17 -22 23 -7 10 26 -2 156 -19 204 -42 118 -134 182 -261 182 -43 -1
-91 -8 -123 -20z m165 -92 c33 -33 -6 -91 -47 -69 -27 15 -32 35 -15 60 17 23
44 27 62 9z"/>
<path d="M1106 6457 c-16 -23 -55 -79 -87 -123 -364 -519 -594 -1150 -671
-1839 -19 -170 -16 -631 5 -800 61 -481 169 -859 358 -1254 249 -518 560 -926
989 -1293 171 -147 225 -187 400 -303 397 -260 816 -439 1275 -544 178 -41
230 -48 219 -30 -16 27 -108 155 -182 254 -42 55 -76 101 -77 103 -1 1 -61 20
-133 42 -736 222 -1386 682 -1853 1311 -327 440 -551 959 -648 1503 -11 59
-22 110 -24 112 -2 2 -17 -1 -33 -8 -38 -14 -75 -5 -111 26 -39 34 -39 98 0
149 l28 37 -31 0 c-23 0 -42 10 -67 35 -32 32 -35 39 -31 84 2 38 -1 54 -17
71 -45 50 -10 188 60 234 l25 17 -19 38 c-19 37 -18 86 3 120 13 20 61 40 115
47 28 4 54 10 56 15 3 4 12 61 20 126 9 65 29 187 47 272 30 152 31 154 14
221 -22 91 -20 171 5 288 52 238 137 376 395 642 192 198 182 178 135 264
-100 186 -123 226 -129 226 -4 -1 -20 -20 -36 -43z"/>
<path d="M1785 6259 c-11 -5 -31 -26 -44 -46 -20 -32 -22 -44 -17 -94 l7 -58
-103 -52 c-57 -28 -111 -61 -120 -72 -24 -30 -22 -66 4 -94 l22 -24 -51 -47
c-58 -53 -67 -69 -112 -200 -54 -157 -52 -222 5 -222 35 0 53 36 75 147 11 54
25 111 31 126 6 16 42 53 80 84 70 56 88 82 88 132 0 18 13 39 41 66 51 51
100 126 123 190 10 28 34 73 53 102 20 28 32 56 29 62 -9 13 -84 13 -111 0z"/>
<path d="M2010 6221 c-44 -44 -166 -299 -153 -320 24 -38 42 -23 127 108 114
175 117 182 103 212 -18 35 -43 35 -77 0z"/>
<path d="M4732 6213 c-49 -24 -92 -78 -92 -116 0 -39 15 -57 47 -57 21 0 24 4
21 38 -3 31 0 37 18 40 25 4 64 -39 64 -69 0 -11 -9 -28 -21 -40 -23 -23 -64
-20 -107 8 -63 39 -21 -47 57 -119 34 -32 66 -58 71 -58 5 0 11 12 13 28 4 24
4 24 6 -7 0 -22 5 -32 14 -28 6 2 39 12 72 22 73 21 108 38 135 67 29 31 25
36 -21 28 -86 -16 -147 27 -121 85 15 32 56 49 83 35 22 -12 24 -23 8 -52 -9
-18 -8 -24 7 -35 69 -50 125 58 71 138 -55 81 -240 134 -325 92z"/>
<path d="M1272 5996 c-216 -220 -302 -326 -356 -439 -99 -211 -113 -437 -32
-546 16 -21 22 -39 17 -45 -4 -6 -11 -29 -14 -52 -4 -22 -22 -92 -42 -155 -53
-174 -47 -256 27 -360 6 -9 9 -23 5 -31 -4 -12 -28 -16 -114 -17 -59 -1 -126
-6 -148 -11 -27 -5 -1 -6 76 -3 64 3 128 3 143 -1 24 -6 26 -10 26 -60 l0 -54
-67 -6 c-138 -13 -222 -43 -269 -93 -13 -14 -24 -35 -24 -47 0 -18 3 -16 20
11 32 54 133 93 277 108 61 7 62 6 69 -19 3 -14 7 -39 7 -56 2 -30 -1 -32 -83
-63 -92 -35 -194 -93 -226 -128 -13 -15 -3 -11 36 13 78 50 146 83 219 107 78
26 78 26 86 2 3 -11 16 -35 29 -54 l24 -35 -91 -53 c-84 -50 -265 -205 -253
-217 3 -3 38 26 77 63 72 67 143 118 232 165 l46 25 43 -41 c71 -68 104 -78
139 -43 28 28 19 49 -60 127 -80 80 -116 141 -142 241 -26 102 -25 145 4 164
l23 15 -1 -72 c0 -61 5 -81 32 -136 42 -84 123 -170 161 -170 34 0 70 25 82
56 5 13 18 24 28 24 19 0 72 50 91 87 27 53 8 107 -46 129 -29 13 -43 13 -83
3 -44 -11 -50 -10 -75 9 -29 23 -60 28 -70 12 -10 -16 -23 -12 -30 9 -12 40
63 217 146 339 16 24 29 53 29 66 0 13 8 34 18 47 53 69 52 130 -3 237 -40 80
-60 103 -142 165 -71 54 -113 104 -113 134 0 28 47 167 76 225 13 25 72 111
131 190 175 233 293 402 293 421 0 9 -6 17 -14 17 -7 0 -104 -92 -214 -204z
m-268 -782 c7 -18 0 -34 -15 -34 -5 0 -9 11 -9 25 0 28 15 34 24 9z m113 -106
c30 -34 57 -78 50 -84 -20 -20 -97 45 -97 82 0 30 20 31 47 2z m55 -257 c53
-6 53 -6 52 -41 -1 -29 -13 -47 -75 -110 -58 -58 -85 -95 -118 -164 -50 -102
-55 -100 -75 17 -8 47 -11 127 -8 229 l5 156 83 -40 c46 -22 107 -43 136 -47z"/>
<path d="M4495 6121 c-64 -37 -109 -81 -156 -154 -59 -90 -80 -165 -86 -295
-9 -194 31 -307 202 -576 25 -39 43 -72 41 -74 -4 -3 -59 54 -109 113 -46 55
-126 196 -156 275 -75 194 -70 318 20 533 28 65 49 123 47 128 -5 14 -75 -43
-122 -99 -43 -53 -90 -141 -101 -190 -4 -21 -1 -47 9 -75 11 -27 19 -98 24
-202 l9 -161 35 -54 c19 -30 94 -116 167 -189 179 -183 184 -195 236 -549 29
-196 57 -333 78 -382 18 -42 23 -32 32 65 3 39 22 147 43 240 33 152 37 185
36 315 0 162 -14 247 -48 287 l-23 26 -6 -119 c-6 -121 -25 -213 -26 -129 -2
107 -46 268 -111 410 -124 268 -149 368 -129 508 11 83 66 227 114 303 20 31
35 60 33 65 -2 5 -25 -4 -53 -20z"/>
<path d="M6098 6078 c74 -90 93 -128 122 -243 22 -85 57 -172 65 -163 8 7 -24
244 -40 296 -9 31 -31 70 -52 93 -34 37 -117 89 -143 89 -6 0 15 -33 48 -72z"/>
<path d="M5462 6055 c92 -176 136 -370 154 -672 3 -68 10 -123 14 -123 14 0
33 117 39 235 6 118 6 119 20 80 17 -51 50 -105 63 -105 6 0 7 7 4 16 -3 8
-15 72 -27 142 -36 221 -70 305 -158 397 -44 47 -122 105 -139 105 -5 0 8 -34
30 -75z"/>
<path d="M5881 6074 c9 -11 46 -55 83 -99 91 -108 140 -198 166 -309 32 -134
70 -240 97 -273 19 -22 23 -24 19 -8 -3 11 -10 61 -16 110 -26 226 -33 272
-51 324 -43 126 -149 223 -289 266 -24 7 -24 7 -9 -11z"/>
<path d="M2100 6027 c-17 -8 -34 -34 -51 -78 -15 -36 -65 -128 -113 -205 -93
-150 -104 -186 -56 -192 29 -3 51 18 135 128 27 36 68 88 90 115 22 28 47 66
54 85 7 19 17 43 22 52 33 64 -20 126 -81 95z"/>
<path d="M7586 5854 c-54 -94 -86 -161 -83 -172 3 -9 31 -75 63 -147 105 -241
191 -533 239 -817 39 -232 48 -384 42 -688 -7 -312 -22 -449 -81 -710 -186
-822 -672 -1574 -1316 -2037 -259 -186 -533 -354 -822 -503 l-148 -76 -100
-203 c-55 -112 -98 -206 -96 -209 18 -17 541 223 726 333 30 18 107 63 170
101 181 106 486 314 592 402 184 154 296 263 465 454 45 52 248 321 287 382
196 307 358 644 456 951 281 882 245 1834 -103 2685 -55 135 -180 395 -194
403 -5 3 -49 -64 -97 -149z"/>
<path d="M5180 5954 c0 -89 60 -255 122 -335 20 -25 44 -59 54 -74 l18 -28
-22 12 c-12 6 -47 37 -77 68 -57 57 -137 201 -151 271 -4 18 -11 35 -15 38
-13 8 -37 -20 -55 -61 l-14 -36 -25 28 -24 28 -1 -26 c0 -47 50 -200 91 -280
36 -69 124 -177 135 -166 2 2 -4 24 -14 48 -11 25 -23 60 -26 79 -5 24 7 6 38
-55 39 -77 96 -163 150 -227 47 -55 49 -130 6 -224 -37 -82 -73 -142 -233
-384 -141 -215 -225 -375 -257 -494 -12 -43 -20 -80 -17 -82 2 -2 32 40 67 93
35 54 66 100 69 103 3 3 35 43 71 90 35 47 107 137 160 200 140 168 168 206
211 295 102 211 129 428 88 695 -11 70 -51 170 -68 170 -6 0 -11 -22 -11 -51
0 -59 -7 -57 -53 14 -127 195 -208 317 -212 317 -3 0 -5 -11 -5 -26z"/>
<path d="M3044 5935 c-87 -24 -168 -54 -183 -70 -14 -13 -14 -17 1 -31 13 -13
24 -14 61 -6 43 9 46 8 51 -14 10 -37 33 -52 91 -59 30 -4 55 -11 55 -16 0 -5
-4 -9 -9 -9 -5 0 -12 -14 -16 -31 -18 -80 55 -130 162 -111 32 5 60 9 61 7 2
-2 -15 -21 -37 -43 -23 -22 -41 -47 -41 -55 0 -22 11 -47 21 -47 4 0 20 -12
34 -26 22 -22 31 -25 68 -19 47 7 92 35 92 56 0 9 -20 18 -55 24 l-55 11 48
51 c26 27 47 57 47 66 0 9 11 19 26 23 18 5 24 12 22 28 -3 20 -9 21 -126 24
-121 3 -122 3 -111 24 8 15 8 27 0 45 -10 22 -8 27 14 45 14 11 25 26 25 34 0
16 -39 34 -76 34 -21 0 -24 3 -18 25 13 54 -44 69 -152 40z"/>
<path d="M5858 5738 c155 -230 226 -471 263 -888 11 -128 10 -159 -5 -262 -9
-65 -19 -124 -22 -133 -5 -13 5 -15 62 -13 78 2 104 -9 197 -79 38 -28 59 -39
62 -31 3 7 11 56 20 108 20 125 20 308 -1 385 -16 65 -60 149 -73 141 -4 -3
-11 -40 -14 -83 -4 -43 -13 -105 -22 -138 -18 -66 -52 -145 -65 -145 -4 0 -10
62 -13 138 -4 114 -11 161 -42 280 -20 79 -34 146 -32 148 2 3 23 -34 45 -81
23 -47 44 -85 48 -85 24 0 -41 219 -110 364 -41 88 -122 235 -135 246 -3 3
-19 24 -35 48 -36 53 -142 152 -162 152 -10 0 2 -24 34 -72z"/>
<path d="M4524 5733 c-46 -159 30 -365 202 -542 46 -47 84 -90 84 -96 1 -5 7
-78 14 -161 18 -197 10 -267 -54 -474 -58 -187 -72 -291 -60 -440 13 -164 25
-202 58 -193 15 3 17 15 14 87 -5 103 11 209 41 284 13 31 84 154 157 272 138
223 217 369 251 468 45 126 32 289 -32 400 -44 77 -159 194 -253 255 -98 66
-114 83 -136 147 -18 53 -22 53 -48 0 -21 -42 -88 -110 -108 -110 -36 0 -62
29 -84 95 -12 36 -23 65 -26 65 -2 0 -11 -26 -20 -57z m349 -313 c49 -16 100
-30 113 -30 39 0 41 -27 4 -65 -35 -36 -103 -65 -153 -65 -27 0 -29 2 -23 28
6 25 5 26 -8 8 -36 -45 -106 28 -92 97 6 31 31 56 56 57 8 0 55 -13 103 -30z"/>
<path d="M3930 5693 c-27 -10 -30 -26 -30 -160 0 -184 -23 -342 -71 -500 -45
-144 -47 -176 -11 -181 79 -11 159 150 184 370 16 145 -2 446 -29 465 -18 14
-20 14 -43 6z"/>
<path d="M5811 5685 c0 -5 6 -89 14 -185 25 -304 17 -409 -46 -570 -28 -73
-63 -130 -72 -120 -3 3 1 41 10 85 8 49 12 106 8 148 -6 73 -30 147 -43 131
-5 -5 -30 -70 -57 -144 -58 -162 -136 -322 -200 -410 -26 -36 -97 -114 -157
-175 -60 -60 -138 -150 -174 -200 -70 -98 -199 -344 -192 -365 2 -7 31 27 63
76 117 175 247 286 392 335 44 14 69 29 80 47 36 58 196 282 204 288 5 3 0
-16 -11 -43 -39 -95 -73 -214 -64 -223 6 -6 53 40 118 115 59 69 110 125 113
125 17 0 -33 -132 -69 -183 -11 -16 -18 -30 -16 -32 4 -5 278 41 284 48 2 2
12 40 20 83 20 98 23 468 5 594 -39 275 -98 460 -174 545 -20 22 -36 36 -36
30z"/>
<path d="M1182 5534 c-30 -21 -62 -86 -62 -127 0 -36 39 -105 55 -97 5 3 8 32
7 65 -3 56 -1 63 32 102 51 59 28 99 -32 57z"/>
<path d="M2055 5373 c-34 -9 -121 -71 -164 -118 -38 -42 -54 -85 -31 -85 6 0
61 27 123 61 124 66 176 111 156 135 -11 14 -45 17 -84 7z"/>
<path d="M4013 5078 c-6 -7 -14 -38 -18 -68 -33 -252 -143 -536 -317 -817 -94
-149 -138 -230 -138 -248 0 -8 9 -19 21 -25 16 -9 28 -7 62 13 174 102 335
376 424 722 23 87 26 122 27 265 l1 165 -26 3 c-14 2 -30 -3 -36 -10z"/>
<path d="M2340 5059 c-41 -4 -133 -12 -205 -18 -165 -13 -217 -29 -283 -87
-106 -93 -218 -257 -210 -307 4 -20 6 -19 24 12 10 19 34 52 53 73 30 34 36
37 50 24 57 -50 203 -93 285 -84 51 6 170 59 204 91 39 36 65 96 59 137 l-5
37 64 6 c100 8 159 51 136 101 -13 29 -29 30 -172 15z m-244 -109 c8 0 14 -10
14 -25 0 -23 -4 -25 -45 -25 -33 0 -47 5 -54 18 -14 27 7 45 43 38 16 -3 35
-6 42 -6z m-226 -44 c0 -2 -7 -20 -15 -40 -13 -31 -20 -36 -47 -36 l-32 0 39
40 c34 35 55 49 55 36z"/>
<path d="M2950 5045 c-30 -36 13 -51 182 -65 73 -6 160 -18 193 -25 82 -20
120 -22 139 -6 38 32 0 83 -74 100 -25 6 -131 11 -236 11 -156 0 -194 -3 -204
-15z"/>
<path d="M2661 4986 c-29 -31 -20 -50 14 -34 39 18 70 -2 90 -59 85 -232 178
-314 335 -292 50 6 61 4 122 -27 74 -37 125 -43 220 -23 103 22 147 72 98 111
-21 17 -34 18 -116 12 -92 -7 -93 -7 -151 27 -56 33 -62 34 -152 32 -130 -3
-162 17 -234 148 -51 93 -94 129 -156 129 -37 0 -52 -5 -70 -24z"/>
<path d="M2661 4511 c-48 -13 -42 -81 7 -81 36 0 54 -14 97 -74 43 -59 93 -93
191 -126 81 -28 116 -25 203 17 42 20 98 40 124 44 27 5 55 13 63 20 17 14 18
53 2 66 -40 32 -155 20 -242 -24 -35 -18 -59 -24 -83 -20 -60 10 -137 53 -183
101 -64 68 -123 93 -179 77z"/>
<path d="M4057 4514 c-4 -4 -7 -25 -7 -46 0 -98 -56 -279 -126 -407 -36 -65
-134 -204 -153 -216 -35 -21 36 -75 98 -75 39 0 41 2 82 71 61 105 97 188 124
292 41 152 43 377 4 385 -8 1 -18 0 -22 -4z"/>
<path d="M6065 4323 c-44 -4 -396 -61 -433 -70 -13 -3 -20 -9 -15 -14 4 -4 80
-32 168 -62 88 -30 212 -76 275 -101 248 -102 430 -124 438 -55 6 50 -117 190
-243 275 -52 35 -72 38 -190 27z"/>
<path d="M2348 4240 c-101 -16 -238 -51 -238 -62 0 -5 8 -7 18 -4 9 3 64 15
122 28 89 19 136 22 310 22 219 1 288 -8 466 -60 48 -13 91 -23 97 -21 14 4
-164 64 -248 83 -82 18 -438 28 -527 14z"/>
<path d="M5450 4201 c-52 -15 -119 -41 -149 -57 -64 -35 -181 -155 -236 -243
-70 -110 -93 -131 -175 -157 -41 -13 -115 -29 -165 -35 -49 -6 -128 -20 -175
-30 -246 -56 -316 -59 -655 -28 -116 10 -132 14 -152 35 -29 31 -64 44 -119
44 -24 0 -70 9 -102 20 -104 37 -186 52 -280 52 -88 -1 -97 -3 -177 -41 -159
-77 -296 -200 -459 -411 -36 -47 -66 -90 -66 -97 0 -15 80 -53 113 -53 15 0
27 -2 27 -4 0 -2 -15 -42 -32 -88 -36 -91 -43 -167 -19 -211 15 -28 116 -87
150 -87 12 0 39 -9 61 -20 30 -16 41 -28 49 -58 16 -62 30 -264 21 -317 -28
-176 -32 -229 -27 -360 6 -165 29 -300 62 -373 15 -32 55 -85 103 -135 45 -47
100 -119 130 -170 182 -308 328 -489 584 -723 69 -63 81 -81 120 -167 103
-229 224 -321 437 -333 47 -3 118 -9 156 -15 62 -10 76 -9 125 9 30 11 89 32
130 47 130 47 188 102 255 240 24 50 53 131 65 180 26 109 32 119 95 187 285
302 377 422 468 610 40 83 104 242 112 280 4 18 28 61 54 95 25 35 51 77 58
95 16 46 16 126 -2 253 -12 86 -15 182 -12 452 l4 343 45 39 c26 24 59 68 81
111 36 69 37 76 37 176 0 56 -4 113 -9 126 -31 74 -60 191 -51 207 5 9 31 38
58 64 65 62 126 188 147 299 l7 37 -88 44 c-49 23 -152 65 -229 91 -77 27
-166 61 -197 77 -32 16 -63 29 -70 28 -7 0 -56 -13 -108 -28z m11 -396 c16 -9
84 -23 152 -32 113 -14 130 -14 239 2 64 9 122 15 128 13 22 -7 -58 -84 -131
-125 -103 -59 -220 -74 -280 -37 -78 47 -178 146 -179 177 0 22 30 22 71 2z
m-2448 -287 c8 -33 -7 -94 -34 -132 -46 -67 -120 -96 -214 -82 -36 6 -45 11
-45 27 0 10 3 19 8 19 4 1 32 23 62 50 30 28 58 50 62 50 4 0 13 6 20 13 30
30 102 77 118 77 10 0 20 -10 23 -22z m1429 -79 c3 -28 -1 -113 -8 -188 -7
-75 -13 -193 -14 -263 0 -71 -4 -128 -9 -128 -19 0 -36 353 -23 480 16 147 45
199 54 99z m-137 30 c4 -5 18 -76 31 -157 26 -160 35 -454 13 -467 -19 -13
-24 6 -22 93 1 48 -4 132 -13 187 -32 210 -43 311 -38 332 7 25 19 30 29 12z
m831 -199 c102 -41 149 -75 273 -199 73 -73 115 -124 134 -163 28 -58 57 -170
57 -223 -1 -28 -2 -29 -15 -11 -7 10 -30 62 -51 115 -20 53 -50 117 -66 143
-59 95 -203 215 -424 355 -38 24 15 14 92 -17z m-182 -69 c23 -9 14 -16 -34
-26 -43 -9 -161 -63 -217 -98 -24 -15 -45 -27 -48 -27 -3 0 -5 13 -5 29 0 38
43 89 95 112 42 19 170 25 209 10z m-943 -42 c20 -10 48 -32 62 -49 26 -31 50
-96 41 -111 -2 -5 -57 27 -122 69 -64 43 -133 84 -152 92 l-35 15 40 6 c55 9
123 0 166 -22z m-751 -109 c0 -6 -16 -42 -35 -80 -67 -132 -124 -314 -166
-525 -29 -143 -43 -152 -39 -25 3 132 136 545 202 628 13 15 38 16 38 2z
m1976 -9 c22 -10 57 -33 78 -51 40 -35 92 -117 82 -127 -4 -4 -31 1 -61 12
-42 14 -70 17 -121 12 -88 -8 -126 -35 -223 -155 -73 -90 -77 -93 -110 -88
-19 3 -42 12 -50 21 -14 14 -12 23 23 93 62 127 129 232 169 268 34 32 42 34
105 34 43 0 81 -7 108 -19z m-1684 -22 c12 -6 35 -24 52 -39 155 -136 223
-201 239 -227 l18 -31 -46 -32 -45 -31 -52 41 c-28 22 -86 58 -127 78 -66 32
-85 37 -146 37 -56 -1 -80 -6 -121 -27 -27 -15 -56 -34 -63 -42 -45 -55 -36
43 12 123 70 116 206 189 279 150z m1708 -249 c20 -13 9 -21 -40 -27 -35 -5
-46 -12 -62 -39 -21 -36 -45 -44 -55 -18 -7 19 25 64 58 81 28 15 78 16 99 3z
m64 -56 c13 -34 5 -63 -24 -88 -41 -34 -89 -42 -128 -22 -43 22 -50 37 -13 30
53 -11 80 3 103 51 22 46 50 59 62 29z m-1733 -23 c45 -46 39 -68 -9 -30 -23
17 -35 20 -79 14 -48 -6 -53 -5 -53 13 0 25 12 30 68 31 35 1 49 -5 73 -28z
m-106 -61 c3 -6 20 -17 36 -26 24 -12 37 -13 60 -5 40 14 40 -13 -1 -34 -34
-18 -65 -19 -108 -4 -33 11 -46 32 -37 60 7 20 40 26 50 9z m1971 -26 c11 -44
-4 -191 -24 -236 -40 -91 -106 -138 -175 -124 -83 17 -287 211 -287 274 0 34
77 42 170 17 113 -30 185 -16 250 50 24 25 48 45 52 45 4 0 11 -12 14 -26z
m-629 -36 c11 -13 33 -43 48 -68 15 -25 79 -96 143 -157 130 -125 141 -131
302 -158 266 -44 375 -73 424 -110 36 -28 9 -25 -55 4 -48 23 -94 34 -189 46
-136 18 -364 61 -388 74 -8 4 -73 66 -144 137 -117 116 -188 207 -188 242 0
19 25 14 47 -10z m-887 -23 c0 -16 -83 -177 -142 -274 -53 -87 -84 -119 -198
-203 -52 -39 -107 -82 -122 -95 -20 -19 -57 -31 -165 -54 -76 -17 -151 -29
-168 -27 -20 2 1 9 60 20 172 33 239 68 418 216 87 72 98 87 183 250 75 144
134 218 134 167z m-159 -25 c26 -14 24 -41 -7 -103 -70 -139 -171 -258 -275
-328 -44 -29 -89 -38 -89 -18 0 6 14 56 31 110 18 57 29 108 25 121 -3 13 -32
44 -64 69 -54 43 -115 130 -100 144 3 4 26 -8 50 -25 41 -31 46 -32 113 -26
39 3 108 18 155 34 93 32 131 37 161 22z m775 -87 c28 -8 64 -26 80 -40 29
-24 29 -24 4 -19 -14 2 -50 11 -80 20 -75 22 -179 20 -305 -5 -59 -11 -123
-19 -143 -17 -35 3 -34 4 38 30 157 56 289 66 406 31z m36 -188 c27 -9 50 -20
52 -23 2 -4 -66 -7 -153 -8 -115 -1 -188 -7 -279 -23 -117 -22 -147 -22 -126
-2 11 11 153 58 215 71 63 13 235 4 291 -15z m-10 -120 c116 -24 190 -87 192
-163 1 -52 -25 -82 -70 -82 -47 0 -64 9 -64 34 0 11 -5 38 -11 59 -10 38 -11
39 -47 32 -46 -8 -62 -28 -62 -77 0 -53 22 -100 55 -122 24 -16 40 -18 103
-12 83 7 102 -1 102 -41 0 -41 -41 -69 -149 -103 -76 -23 -112 -40 -140 -66
-21 -19 -41 -34 -45 -34 -3 0 -6 55 -7 123 0 136 -8 198 -26 204 -9 3 -11 -34
-8 -149 2 -84 0 -159 -4 -167 -7 -10 -15 -4 -34 26 -30 48 -70 81 -106 89 -71
16 -123 38 -141 61 -11 15 -17 30 -13 34 5 5 44 15 87 24 100 19 116 32 116
99 0 67 -30 120 -63 110 -37 -11 -45 -23 -52 -75 -5 -38 -13 -54 -32 -66 -22
-15 -28 -15 -51 -2 -55 31 -48 109 16 174 89 90 275 127 454 90z m592 -45 c27
-22 58 -42 70 -45 11 -2 89 -6 171 -8 166 -4 206 -15 263 -70 37 -35 60 -103
42 -121 -14 -14 -30 9 -30 43 0 33 -58 87 -111 102 -25 7 -103 13 -184 14 -87
1 -156 6 -183 15 -47 15 -122 74 -122 96 0 25 34 15 84 -26z m-1449 -87 c-43
-103 -150 -164 -330 -188 -66 -9 -145 -21 -175 -26 -105 -21 -160 -70 -160
-143 0 -41 -17 -48 -26 -11 -14 56 28 130 92 160 20 9 105 28 188 41 232 36
249 42 331 129 80 84 104 96 80 38z m1945 -232 c0 -5 -20 -19 -45 -31 -29 -14
-79 -58 -138 -121 -50 -55 -114 -114 -142 -132 -27 -18 -69 -49 -93 -70 -68
-58 -132 -86 -243 -104 -100 -16 -101 -16 -177 7 -42 13 -134 40 -204 60 -69
20 -143 47 -164 59 -36 22 -37 22 -58 3 -30 -28 -46 -35 -196 -85 -74 -25
-160 -57 -190 -71 -127 -59 -281 -72 -360 -31 -45 23 -125 85 -222 172 -104
94 -146 121 -201 132 -27 5 -51 11 -54 15 -27 27 90 5 159 -30 26 -13 75 -52
110 -87 113 -111 249 -187 337 -187 49 0 165 30 297 78 196 70 314 131 314
162 0 17 17 11 62 -20 54 -37 308 -128 412 -147 166 -30 291 24 486 212 175
168 249 225 293 225 9 0 17 -4 17 -9z m-627 -495 c7 -18 -8 -83 -23 -101 -7
-8 -23 -15 -36 -15 -20 0 -25 7 -31 43 -4 23 -7 49 -8 57 0 25 89 40 98 16z
m-123 -103 c23 -179 41 -270 67 -348 21 -62 27 -98 26 -158 -1 -43 -6 -83 -11
-90 -5 -7 -15 -30 -22 -52 -34 -106 -82 -178 -159 -238 -46 -35 -69 -45 -127
-56 -39 -7 -84 -20 -100 -30 -50 -30 -80 -33 -144 -11 -36 12 -86 20 -127 20
-72 0 -152 26 -212 69 -53 38 -188 213 -202 262 -20 73 -13 237 22 553 5 49
12 94 16 99 8 13 125 -1 203 -25 89 -28 187 -80 234 -124 39 -37 39 -37 47
-140 5 -57 13 -133 19 -170 6 -37 15 -145 20 -240 5 -96 12 -180 17 -186 4 -7
10 57 13 142 6 149 4 177 -30 412 -22 149 17 210 199 313 103 58 166 83 212
84 26 1 27 -1 39 -86z m-1028 -18 c-5 -62 -24 -95 -57 -95 -30 0 -55 42 -58
98 -2 37 -2 37 43 43 75 10 75 10 72 -46z"/>
<path d="M1860 4145 c-10 -12 -10 -21 -2 -40 22 -47 81 -21 68 30 -7 29 -46
35 -66 10z"/>
<path d="M1724 4116 c-10 -26 4 -48 28 -44 17 2 23 10 23 28 0 18 -6 26 -23
28 -13 2 -25 -3 -28 -12z"/>
<path d="M2143 4104 c-13 -3 -23 -9 -23 -13 0 -5 54 -6 119 -3 168 7 307 -10
549 -65 12 -3 22 -8 22 -12 0 -6 -104 -87 -147 -114 -7 -4 -29 1 -50 11 -59
30 -189 71 -289 92 -121 25 -274 37 -274 21 0 -7 19 -11 48 -11 58 0 216 -25
297 -47 76 -20 235 -83 235 -92 0 -10 -154 -91 -172 -91 -8 0 -61 24 -119 54
-92 48 -266 116 -299 116 -29 0 6 -19 82 -45 95 -31 282 -125 280 -140 -2 -16
-104 -33 -267 -45 -176 -13 -208 -27 -134 -58 62 -27 139 -42 210 -42 99 0
244 59 464 189 44 26 94 53 112 60 30 12 73 76 73 109 0 19 28 14 96 -19 36
-17 75 -29 87 -27 19 3 15 7 -23 28 -92 52 -231 98 -385 126 -88 16 -442 29
-492 18z"/>
<path d="M1632 4028 c-17 -17 -15 -36 7 -47 27 -15 56 9 47 37 -8 24 -35 29
-54 10z"/>
<path d="M1922 4013 c-42 -15 -32 -83 13 -83 26 0 50 32 41 55 -6 18 -37 34
-54 28z"/>
<path d="M1151 3996 c-29 -35 69 -146 171 -194 205 -98 488 -104 663 -14 44
22 92 68 82 78 -4 4 -50 -8 -104 -26 -94 -32 -105 -34 -243 -33 -123 0 -159 4
-243 26 -119 32 -202 75 -257 133 -45 48 -52 51 -69 30z"/>
<path d="M1753 3974 c-8 -22 10 -49 32 -49 10 0 22 7 28 16 15 24 1 49 -28 49
-15 0 -28 -7 -32 -16z"/>
<path d="M6233 3873 c-3 -10 -18 -52 -34 -93 l-28 -75 25 30 c24 28 74 127 74
146 0 16 -31 9 -37 -8z"/>
<path d="M1175 3829 c-14 -22 8 -62 68 -122 129 -130 345 -200 545 -177 87 10
122 22 122 44 0 26 -26 34 -170 50 -240 28 -374 77 -475 172 -46 43 -77 55
-90 33z"/>
<path d="M2965 3810 c-73 -15 -149 -47 -225 -93 -114 -70 -256 -141 -345 -172
-100 -35 -164 -67 -189 -94 -23 -26 -18 -67 32 -248 l36 -133 42 0 c36 0 47 6
82 44 23 24 55 73 73 108 17 34 57 92 89 128 31 36 84 101 117 145 34 44 76
94 94 111 64 59 174 137 224 160 28 12 57 29 64 38 12 14 10 16 -20 15 -19 -1
-52 -5 -74 -9z"/>
</g>
</svg>
