<?xml version="1.0" standalone="no"?>
<!DOCTYPE svg PUBLIC "-//W3C//DTD SVG 20010904//EN"
 "http://www.w3.org/TR/2001/REC-SVG-20010904/DTD/svg10.dtd">
<svg version="1.0" xmlns="http://www.w3.org/2000/svg"
 width="980.000000pt" height="980.000000pt" viewBox="0 0 980.000000 980.000000"
 preserveAspectRatio="xMidYMid meet">

<g transform="translate(0.000000,980.000000) scale(0.100000,-0.100000)"
fill="#DAA520" stroke="none">
<!-- <path d="M4625 9793 c-815 -42 -1660 -313 -2355 -755 -510 -324 -980 -766
-1335 -1253 -509 -701 -815 -1504 -912 -2395 -25 -232 -25 -748 0 -980 51
-464 161 -920 322 -1325 59 -151 222 -486 305 -630 600 -1044 1572 -1834 2718
-2212 837 -275 1778 -317 2642 -117 760 177 1439 515 2050 1024 159 132 455
428 589 590 642 768 1018 1660 1128 2670 25 231 25 817 0 1040 -129 1153 -607
2139 -1428 2946 -375 367 -763 644 -1239 883 -761 381 -1619 559 -2485 514z
m510 -603 c200 -12 368 -32 555 -66 1737 -318 3125 -1683 3464 -3404 57 -293
70 -438 71 -810 0 -373 -7 -471 -55 -755 -307 -1809 -1716 -3218 -3525 -3525
-280 -47 -384 -55 -740 -55 -356 0 -459 8 -741 55 -716 122 -1403 432 -1983
896 -163 131 -436 396 -574 557 -556 651 -892 1408 -1007 2267 -27 200 -38
628 -21 832 101 1215 684 2314 1630 3070 829 663 1880 999 2926 938z"/> -->
<path d="M4615 7404 c-521 -80 -860 -395 -995 -924 -58 -227 -89 -565 -70
-765 44 -481 236 -896 557 -1206 356 -344 759 -444 1158 -288 331 129 625 412
805 774 151 305 205 587 181 947 -19 285 -55 472 -128 668 -45 120 -72 174
-139 277 -181 279 -453 453 -802 513 -137 24 -426 26 -567 4z"/>
<path d="M3680 4125 c-270 -74 -485 -191 -648 -354 -159 -160 -303 -445 -318
-633 -16 -187 68 -354 230 -460 l59 -38 1950 0 1950 0 47 30 c106 68 184 178
217 303 33 130 0 336 -81 495 -41 82 -275 322 -412 425 -142 106 -392 220
-530 242 -39 7 -41 6 -82 -48 -97 -126 -293 -294 -439 -377 -218 -125 -396
-169 -688 -170 -234 0 -400 33 -582 115 -195 89 -427 280 -568 466 l-20 27
-85 -23z"/>
</g>
</svg>
