<?xml version="1.0" standalone="no"?>
<!DOCTYPE svg PUBLIC "-//W3C//DTD SVG 20010904//EN"
 "http://www.w3.org/TR/2001/REC-SVG-20010904/DTD/svg10.dtd">
<svg version="1.0" xmlns="http://www.w3.org/2000/svg"
 width="1000.000000pt" height="600.000000pt" viewBox="0 0 1000.000000 600.000000"
 preserveAspectRatio="xMidYMid meet">

<g transform="translate(0.000000,600.000000) scale(0.100000,-0.100000)"
fill="#000000" stroke="none">
<path d="M2921 4963 c1 -43 4 -103 8 -133 5 -45 8 -50 13 -29 4 14 19 31 33
39 14 8 25 21 24 29 -1 9 -1 35 0 59 l1 42 53 0 c30 1 60 7 71 15 11 8 16 15
11 15 -4 0 2 9 15 20 l23 20 -126 0 -127 0 1 -77z"/>
<path d="M4500 4938 c0 -98 11 -145 28 -123 4 6 16 15 27 21 16 9 21 23 23 73
l3 61 52 0 c46 1 56 5 87 35 l34 35 -127 0 -127 0 0 -102z"/>
<path d="M6070 4915 l0 -126 35 28 c33 27 35 31 35 89 l0 62 66 4 c48 3 69 9
75 21 5 9 16 23 25 32 14 13 3 15 -110 15 l-126 0 0 -125z"/>
<path d="M3020 4911 c0 -19 3 -22 9 -12 5 8 14 10 22 6 8 -5 11 -5 7 0 -4 4
-1 13 7 19 13 9 10 11 -15 12 -26 2 -30 -2 -30 -25z"/>
<path d="M4600 4926 c0 -19 23 -33 28 -18 2 7 7 10 11 8 4 -3 8 1 8 9 0 9 -10
15 -24 15 -13 0 -23 -6 -23 -14z"/>
<path d="M6170 4921 c0 -11 6 -23 13 -27 6 -4 9 -4 5 1 -4 4 3 16 15 26 l22
18 -27 1 c-21 0 -28 -5 -28 -19z"/>
<path d="M3903 4304 c-13 -12 -23 -26 -23 -33 0 -6 -4 -11 -10 -11 -6 0 -10
-32 -10 -75 l0 -75 -72 0 c-69 0 -75 -2 -111 -34 l-37 -33 67 -6 c116 -11 213
-8 219 6 2 7 3 73 2 147 l-3 135 -22 -21z"/>
<path d="M5469 4293 c-7 -12 -16 -23 -21 -23 -4 0 -8 -36 -8 -80 l0 -80 -80 0
c-44 0 -80 -3 -80 -8 0 -4 -11 -19 -24 -33 l-24 -26 51 -7 c29 -3 91 -6 140
-6 l87 0 0 143 c0 117 -3 144 -14 144 -8 0 -20 -11 -27 -24z"/>
<path d="M7060 4313 c0 -7 -4 -13 -10 -13 -5 0 -19 -9 -30 -20 -16 -16 -20
-33 -20 -95 l0 -75 -71 0 c-66 0 -72 -2 -100 -32 l-30 -33 83 -8 c46 -4 108
-6 138 -5 l55 3 3 128 c1 73 -2 135 -7 145 -6 10 -11 12 -11 5z"/>
<path d="M6962 4218 c-7 -7 -12 -18 -12 -25 0 -7 -9 -13 -21 -13 -15 0 -19 -5
-15 -16 3 -8 2 -13 -3 -10 -5 3 -14 0 -20 -8 -9 -10 -1 -13 39 -15 l50 -1 0
50 c0 55 0 56 -18 38z"/>
<path d="M3793 4193 c-13 -9 -23 -21 -23 -29 0 -7 -8 -18 -17 -23 -14 -8 -8
-10 30 -11 l47 0 0 34 c0 42 -8 48 -37 29z"/>
<path d="M5354 4171 l-42 -38 49 -2 49 -1 0 40 c0 22 -3 40 -7 40 -5 0 -27
-17 -49 -39z"/>
<path d="M2920 3463 c0 -32 3 -89 7 -126 6 -66 6 -67 24 -48 11 11 19 24 19
30 0 5 7 11 15 15 11 4 15 21 15 61 l0 55 58 1 c52 0 59 3 85 35 l29 34 -126
0 -126 0 0 -57z"/>
<path d="M4501 3448 c1 -103 13 -188 23 -165 5 9 13 17 18 17 22 0 37 37 38
93 l0 57 53 0 c47 0 56 4 86 35 l33 35 -126 0 -126 0 1 -72z"/>
<path d="M6070 3393 l0 -126 27 24 c41 36 43 39 43 102 l0 57 68 0 c47 0 63 3
52 10 -12 7 -12 10 -1 10 7 0 26 11 43 25 l30 25 -131 0 -131 0 0 -127z"/>
<path d="M3021 3393 c0 -16 3 -23 5 -16 3 7 12 9 20 6 10 -4 12 0 7 13 -5 13
-3 15 7 9 9 -5 11 -4 6 3 -4 7 -16 12 -27 12 -14 0 -19 -7 -18 -27z"/>
<path d="M4600 3388 c1 -29 2 -31 11 -14 9 15 13 16 21 5 8 -11 9 -11 5 2 -3
9 0 22 6 28 8 8 4 11 -16 11 -24 0 -27 -4 -27 -32z"/>
<path d="M6172 3390 c2 -28 3 -29 18 -13 8 10 21 24 29 31 12 10 9 12 -17 12
-30 0 -32 -2 -30 -30z"/>
<path d="M5494 2797 c-5 -7 -13 -20 -17 -29 -3 -10 -13 -18 -22 -18 -8 0 -14
-3 -14 -7 1 -5 1 -41 0 -80 l-1 -73 -80 0 c-61 0 -80 -3 -80 -14 0 -7 -9 -16
-20 -19 -21 -5 -23 -26 -5 -39 6 -4 65 -8 133 -8 l122 0 0 150 c0 83 -1 150
-2 150 -2 -1 -8 -6 -14 -13z"/>
<path d="M3901 2787 c-1 -21 -26 -49 -35 -40 -3 4 -6 -30 -6 -75 l0 -82 -71 0
c-60 0 -75 -4 -98 -23 -14 -13 -27 -28 -28 -34 -3 -15 82 -25 182 -21 l80 3 3
138 c1 85 -1 136 -7 133 -5 -4 -12 0 -14 6 -3 8 -6 5 -6 -5z"/>
<path d="M7050 2787 c0 -8 -9 -22 -19 -31 -15 -13 -20 -14 -24 -4 -3 7 -6 -26
-6 -74 l-1 -88 -75 0 c-46 0 -75 -4 -75 -10 0 -6 -12 -22 -27 -34 l-28 -24 65
-7 c36 -3 99 -5 140 -3 l75 3 2 143 c1 117 -1 142 -13 142 -8 0 -14 -6 -14
-13z"/>
<path d="M3776 2653 l-39 -43 47 0 46 0 0 39 c0 22 -3 42 -7 44 -5 2 -25 -16
-47 -40z"/>
<path d="M5391 2687 c-6 -8 -7 -18 -3 -22 4 -5 0 -6 -9 -2 -16 5 -59 -29 -59
-46 0 -4 20 -7 45 -7 l45 0 0 45 c0 49 -2 52 -19 32z"/>
<path d="M6953 2680 c-3 -11 -9 -20 -14 -20 -4 0 -20 -11 -35 -25 l-27 -25 52
0 51 0 0 45 c0 46 -17 62 -27 25z"/>
<path d="M2923 1819 c6 -114 11 -134 27 -109 6 8 10 12 10 8 0 -5 9 1 20 12
15 15 20 33 20 75 l0 55 61 0 c52 0 62 3 66 19 3 11 11 22 19 25 8 3 14 10 14
16 0 6 -45 10 -121 10 l-122 0 6 -111z"/>
<path d="M4502 1822 c5 -127 11 -143 40 -107 11 14 24 23 29 20 5 -4 9 22 9
59 l0 66 61 0 c37 0 58 4 54 10 -3 6 1 10 10 10 9 0 13 5 10 10 -3 6 2 10 13
10 10 0 19 7 19 15 0 13 -21 15 -125 15 l-125 0 5 -108z"/>
<path d="M6070 1810 c0 -66 3 -120 8 -120 4 0 19 12 35 25 24 21 27 31 27 85
l0 60 73 0 c45 0 67 4 58 9 -11 7 -9 10 8 16 11 3 21 11 21 16 0 5 7 9 16 9 8
0 12 5 9 10 -4 6 -58 10 -131 10 l-124 0 0 -120z"/>
<path d="M3020 1805 c0 -23 2 -24 20 -13 31 19 33 38 5 38 -20 0 -25 -5 -25
-25z"/>
<path d="M4601 1803 c0 -16 3 -22 6 -15 2 6 9 12 15 12 5 0 16 7 24 15 14 13
12 15 -15 15 -27 0 -31 -3 -30 -27z"/>
<path d="M6172 1807 c3 -20 17 -27 19 -9 0 4 10 12 21 18 18 10 17 11 -11 12
-28 1 -32 -2 -29 -21z"/>
<path d="M3920 1204 c0 -8 -5 -12 -11 -9 -6 4 -13 -2 -16 -14 -3 -12 -12 -21
-19 -21 -11 0 -14 -19 -14 -80 l0 -80 -65 0 c-47 0 -75 -6 -102 -21 -84 -47
-64 -57 110 -58 l127 -1 0 150 c0 83 -2 150 -5 150 -3 0 -5 -7 -5 -16z"/>
<path d="M5488 1196 c-44 -46 -48 -57 -48 -126 l0 -70 -73 0 c-56 0 -76 -4
-89 -17 -9 -10 -24 -24 -33 -31 -30 -25 -3 -32 131 -32 l134 0 0 145 c0 80 -2
145 -4 145 -3 0 -11 -6 -18 -14z"/>
<path d="M7035 1176 c-11 -13 -23 -22 -27 -19 -5 2 -8 -32 -8 -76 l0 -81 -71
0 c-67 0 -73 -2 -100 -32 -17 -18 -26 -35 -21 -40 5 -5 67 -7 138 -6 l129 3 3
126 c3 141 -6 168 -43 125z"/>
<path d="M3782 1077 c-23 -23 -42 -45 -42 -49 0 -5 20 -8 45 -8 l45 0 0 50 c0
28 -1 50 -2 49 -2 0 -22 -19 -46 -42z"/>
<path d="M6958 1101 c-9 -11 -14 -22 -11 -25 4 -3 0 -6 -8 -6 -8 0 -25 -12
-38 -25 l-23 -25 51 0 51 0 0 50 c0 28 -1 50 -3 50 -1 0 -10 -9 -19 -19z"/>
<path d="M5351 1060 l-41 -40 50 0 50 0 0 40 c0 22 -4 40 -9 40 -5 0 -27 -18
-50 -40z"/>
</g>
</svg>
